# xmcd CD database file
# Copyright (C) 1993-1998 Ti Kan
# 
# Track frame offsets:
#     200
#     12172
#     25157
#     34877
#     46510
#     55867
#     65677
#     78190
#     90817
#     99060
#     112715
#     126807
#     139677
#     150807
#     165125
#     178255
# 
# Disc length: 2497 seconds
# 
# Revision: 1
# Processed by: cddbd v1.4b41PL1 Copyright (c) Steve Scherf et al.
# Submitted via: DiscPlay 4.0.4
# 
DISCID=a409bf10
DTITLE=Various Artist - Working Man's Blues: The Story of Golden Eagle Records 1962
DTITLE=68
DYEAR=1900
DGENRE=
TTITLE0=Down on Bended Knees - Johnny Copeland
TTITLE1=Poor Me - Oscar Perry
TTITLE2=Red Light - Clarence Green
TTITLE3=My Man - Rose Marie Petitt
TTITLE4=Why Oh Why Does Barbara Cry - The Baxterettes
TTITLE5=We're the Weevils - The Weevils
TTITLE6=Working Man Blues - Johnny Copeland
TTITLE7=Just Above a Whisper - Oscar Perry
TTITLE8=Ain't Nobody Gonna Take My Man - Levenia Lewis
TTITLE9=Screaming All Night Long - Gene Vell
TTITLE10=Walking the Baby - Clarence Green
TTITLE11=I Don't Wish You No Bad Luck - Robin and the Bandits
TTITLE12=Rock Me - David Dunn
TTITLE13=Working Man Blues - Johnny Copeland (unissued version)
TTITLE14=Get Up Off Your Knees - Janie Williams
TTITLE15=Say Ain't It So - David Dunn
EXTD=
EXTT0=
EXTT1=
EXTT2=
EXTT3=
EXTT4=
EXTT5=
EXTT6=
EXTT7=
EXTT8=
EXTT9=
EXTT10=
EXTT11=
EXTT12=
EXTT13=
EXTT14=
EXTT15=
PLAYORDER=
